<?xml version="1.0" encoding="utf-8"?>
<svg version="1.1" xmlns:xlink="http://www.w3.org/1999/xlink" width="12px" height="12px" viewBox="391 475.5  12 12" xmlns="http://www.w3.org/2000/svg">
  <path d="M 397 475.5  C 400.36 475.5  403 478.14  403 481.5  C 403 484.86  400.36 487.5  397 487.5  C 393.64 487.5  391 484.86  391 481.5  C 391 478.14  393.64 475.5  397 475.5  Z " fill-rule="nonzero" fill="#ffffff" stroke="none" />
  <path d="M 397 476  C 400.08 476  402.5 478.42  402.5 481.5  C 402.5 484.58  400.08 487  397 487  C 393.92 487  391.5 484.58  391.5 481.5  C 391.5 478.42  393.92 476  397 476  Z " stroke-width="1" stroke="#797979" fill="none" />
  <path d="M 397 484.5  C 395.32 484.5  394 483.18  394 481.5  C 394 479.82  395.32 478.5  397 478.5  C 398.68 478.5  400 479.82  400 481.5  C 400 483.18  398.68 484.5  397 484.5  " fill-rule="nonzero" fill="#797979" stroke="none" />
</svg>