<?xml version="1.0" encoding="utf-8"?>
<svg version="1.1" xmlns:xlink="http://www.w3.org/1999/xlink" width="12px" height="12px" viewBox="391 376.5  12 12" xmlns="http://www.w3.org/2000/svg">
  <path d="M 397 376.5  C 400.36 376.5  403 379.14  403 382.5  C 403 385.86  400.36 388.5  397 388.5  C 393.64 388.5  391 385.86  391 382.5  C 391 379.14  393.64 376.5  397 376.5  Z " fill-rule="nonzero" fill="#ffffff" stroke="none" />
  <path d="M 397 377  C 400.08 377  402.5 379.42  402.5 382.5  C 402.5 385.58  400.08 388  397 388  C 393.92 388  391.5 385.58  391.5 382.5  C 391.5 379.42  393.92 377  397 377  Z " stroke-width="1" stroke="#797979" fill="none" />
  <path d="M 397 385.5  C 395.32 385.5  394 384.18  394 382.5  C 394 380.82  395.32 379.5  397 379.5  C 398.68 379.5  400 380.82  400 382.5  C 400 384.18  398.68 385.5  397 385.5  " fill-rule="nonzero" fill="#797979" stroke="none" />
</svg>